%TF.GenerationSoftware,Altium Limited,Altium Designer,24.2.2 (26)*%
G04 Layer_Physical_Order=2*
G04 Layer_Color=36540*
%FSLAX45Y45*%
%MOMM*%
%TF.SameCoordinates,D2FE35CC-22CD-4169-9643-A2803306E4A1*%
%TF.FilePolarity,Positive*%
%TF.FileFunction,Copper,L2,Inr,Signal*%
%TF.Part,Single*%
G01*
G75*
%TA.AperFunction,NonConductor*%
%ADD26C,0.25400*%
%TA.AperFunction,ComponentPad*%
%ADD27R,1.57000X1.57000*%
%ADD28C,1.57000*%
%ADD29C,1.95000*%
G04:AMPARAMS|DCode=30|XSize=1.95mm|YSize=1.95mm|CornerRadius=0.4875mm|HoleSize=0mm|Usage=FLASHONLY|Rotation=180.000|XOffset=0mm|YOffset=0mm|HoleType=Round|Shape=RoundedRectangle|*
%AMROUNDEDRECTD30*
21,1,1.95000,0.97500,0,0,180.0*
21,1,0.97500,1.95000,0,0,180.0*
1,1,0.97500,-0.48750,0.48750*
1,1,0.97500,0.48750,0.48750*
1,1,0.97500,0.48750,-0.48750*
1,1,0.97500,-0.48750,-0.48750*
%
%ADD30ROUNDEDRECTD30*%
%ADD31C,4.00000*%
%TA.AperFunction,ViaPad*%
%ADD32C,0.60000*%
%ADD33C,0.80000*%
%ADD34C,0.70000*%
%ADD35C,0.50000*%
G36*
X5407919Y4495004D02*
X5431578Y4485204D01*
X5452870Y4470977D01*
X5470977Y4452870D01*
X5485204Y4431578D01*
X5495004Y4407919D01*
X5500000Y4382804D01*
Y4370000D01*
Y130000D01*
Y117196D01*
X5495004Y92080D01*
X5485204Y68422D01*
X5470977Y47130D01*
X5452870Y29022D01*
X5431578Y14795D01*
X5407919Y4996D01*
X5382804Y0D01*
X117196D01*
X92080Y4996D01*
X68422Y14795D01*
X47130Y29022D01*
X29022Y47130D01*
X14795Y68422D01*
X4996Y92080D01*
X0Y117196D01*
Y130000D01*
Y4370000D01*
Y4382804D01*
X4996Y4407919D01*
X14795Y4431578D01*
X29022Y4452870D01*
X47130Y4470977D01*
X68422Y4485204D01*
X92080Y4495004D01*
X117196Y4500000D01*
X5382804D01*
X5407919Y4495004D01*
D02*
G37*
%LPC*%
G36*
X2342750Y4173540D02*
X2245250D01*
X2225893Y4170991D01*
X2207855Y4163519D01*
X2192366Y4151634D01*
X2180481Y4136145D01*
X2173009Y4118107D01*
X2170460Y4098750D01*
Y4087034D01*
X2157760Y4085362D01*
X2154525Y4097437D01*
X2138345Y4125462D01*
X2115463Y4148344D01*
X2087438Y4164524D01*
X2075000Y4167857D01*
Y4050000D01*
Y3932143D01*
X2087438Y3935475D01*
X2115463Y3951655D01*
X2138345Y3974537D01*
X2154525Y4002562D01*
X2157760Y4014638D01*
X2170460Y4012966D01*
Y4001250D01*
X2173009Y3981893D01*
X2180481Y3963855D01*
X2192366Y3948365D01*
X2207855Y3936480D01*
X2225893Y3929008D01*
X2245250Y3926460D01*
X2342750D01*
X2362107Y3929008D01*
X2380145Y3936480D01*
X2395635Y3948365D01*
X2407520Y3963855D01*
X2414992Y3981893D01*
X2417540Y4001250D01*
Y4098750D01*
X2414992Y4118107D01*
X2407520Y4136145D01*
X2395635Y4151634D01*
X2380145Y4163519D01*
X2362107Y4170991D01*
X2342750Y4173540D01*
D02*
G37*
G36*
X962700Y4084704D02*
Y4042700D01*
X1004704D01*
X996966Y4061382D01*
X981381Y4076966D01*
X962700Y4084704D01*
D02*
G37*
G36*
X937300D02*
X918618Y4076966D01*
X903034Y4061382D01*
X895296Y4042700D01*
X937300D01*
Y4084704D01*
D02*
G37*
G36*
X1004704Y4017300D02*
X962700D01*
Y3975296D01*
X981381Y3983034D01*
X996966Y3998619D01*
X1004704Y4017300D01*
D02*
G37*
G36*
X937300D02*
X895296D01*
X903034Y3998619D01*
X918618Y3983034D01*
X937300Y3975296D01*
Y4017300D01*
D02*
G37*
G36*
X2772014Y4090400D02*
X2747986D01*
X2725786Y4081205D01*
X2708795Y4064214D01*
X2699600Y4042014D01*
Y4017986D01*
X2708795Y3995786D01*
X2725786Y3978795D01*
X2747986Y3969600D01*
X2772014D01*
X2794214Y3978795D01*
X2811204Y3995786D01*
X2820400Y4017986D01*
Y4042014D01*
X2811204Y4064214D01*
X2794214Y4081205D01*
X2772014Y4090400D01*
D02*
G37*
G36*
X1372014D02*
X1347986D01*
X1325786Y4081205D01*
X1308795Y4064214D01*
X1299600Y4042014D01*
Y4017986D01*
X1308795Y3995786D01*
X1325786Y3978795D01*
X1347986Y3969600D01*
X1372014D01*
X1394214Y3978795D01*
X1411205Y3995786D01*
X1420400Y4017986D01*
Y4042014D01*
X1411205Y4064214D01*
X1394214Y4081205D01*
X1372014Y4090400D01*
D02*
G37*
G36*
X1802180Y4172900D02*
X1769820D01*
X1738563Y4164524D01*
X1710538Y4148344D01*
X1687656Y4125462D01*
X1671476Y4097437D01*
X1663100Y4066180D01*
Y4033820D01*
X1671476Y4002562D01*
X1687656Y3974537D01*
X1710538Y3951655D01*
X1738563Y3935475D01*
X1769820Y3927100D01*
X1802180D01*
X1833438Y3935475D01*
X1861463Y3951655D01*
X1884345Y3974537D01*
X1900525Y4002562D01*
X1906426Y4024587D01*
X1919574D01*
X1925476Y4002562D01*
X1941656Y3974537D01*
X1964538Y3951655D01*
X1992563Y3935475D01*
X2005000Y3932143D01*
Y4050000D01*
Y4167857D01*
X1992563Y4164524D01*
X1964538Y4148344D01*
X1941656Y4125462D01*
X1925476Y4097437D01*
X1919574Y4075413D01*
X1906426D01*
X1900525Y4097437D01*
X1884345Y4125462D01*
X1861463Y4148344D01*
X1833438Y4164524D01*
X1802180Y4172900D01*
D02*
G37*
G36*
X5119698Y4300000D02*
X5080302D01*
X5041662Y4292314D01*
X5005265Y4277238D01*
X4972507Y4255350D01*
X4944650Y4227492D01*
X4922762Y4194735D01*
X4907686Y4158338D01*
X4900000Y4119698D01*
Y4080302D01*
X4907686Y4041662D01*
X4922762Y4005265D01*
X4944650Y3972507D01*
X4972507Y3944650D01*
X5005265Y3922762D01*
X5041662Y3907686D01*
X5080302Y3900000D01*
X5119698D01*
X5158338Y3907686D01*
X5194735Y3922762D01*
X5227492Y3944650D01*
X5255350Y3972507D01*
X5277238Y4005265D01*
X5292314Y4041662D01*
X5300000Y4080302D01*
Y4119698D01*
X5292314Y4158338D01*
X5277238Y4194735D01*
X5255350Y4227492D01*
X5227492Y4255350D01*
X5194735Y4277238D01*
X5158338Y4292314D01*
X5119698Y4300000D01*
D02*
G37*
G36*
X419698D02*
X380302D01*
X341662Y4292314D01*
X305265Y4277238D01*
X272507Y4255350D01*
X244650Y4227492D01*
X222762Y4194735D01*
X207686Y4158338D01*
X200000Y4119698D01*
Y4080302D01*
X207686Y4041662D01*
X222762Y4005265D01*
X244650Y3972507D01*
X272507Y3944650D01*
X305265Y3922762D01*
X341662Y3907686D01*
X380302Y3900000D01*
X419698D01*
X458338Y3907686D01*
X494735Y3922762D01*
X527492Y3944650D01*
X555350Y3972507D01*
X577238Y4005265D01*
X592314Y4041662D01*
X600000Y4080302D01*
Y4119698D01*
X592314Y4158338D01*
X577238Y4194735D01*
X555350Y4227492D01*
X527492Y4255350D01*
X494735Y4277238D01*
X458338Y4292314D01*
X419698Y4300000D01*
D02*
G37*
G36*
X2602700Y3764704D02*
Y3722700D01*
X2644704D01*
X2636966Y3741381D01*
X2621381Y3756966D01*
X2602700Y3764704D01*
D02*
G37*
G36*
X2577300D02*
X2558618Y3756966D01*
X2543034Y3741381D01*
X2535296Y3722700D01*
X2577300D01*
Y3764704D01*
D02*
G37*
G36*
X1502700Y3770116D02*
Y3722700D01*
X1550116D01*
X1541205Y3744214D01*
X1524214Y3761205D01*
X1502700Y3770116D01*
D02*
G37*
G36*
X1477300D02*
X1455786Y3761205D01*
X1438795Y3744214D01*
X1429884Y3722700D01*
X1477300D01*
Y3770116D01*
D02*
G37*
G36*
X4600000Y4100000D02*
X3000000D01*
Y3700000D01*
X4600000D01*
Y4100000D01*
D02*
G37*
G36*
X2644704Y3697300D02*
X2602700D01*
Y3655296D01*
X2621381Y3663034D01*
X2636966Y3678618D01*
X2644704Y3697300D01*
D02*
G37*
G36*
X2577300D02*
X2535296D01*
X2543034Y3678618D01*
X2558618Y3663034D01*
X2577300Y3655296D01*
Y3697300D01*
D02*
G37*
G36*
X1251020Y3765400D02*
X1228980D01*
X1208619Y3756966D01*
X1193034Y3741381D01*
X1184600Y3721020D01*
Y3698980D01*
X1193034Y3678618D01*
X1208619Y3663034D01*
X1228980Y3654600D01*
X1251020D01*
X1271382Y3663034D01*
X1286966Y3678618D01*
X1295400Y3698980D01*
Y3721020D01*
X1286966Y3741381D01*
X1271382Y3756966D01*
X1251020Y3765400D01*
D02*
G37*
G36*
X1550116Y3697300D02*
X1502700D01*
Y3649884D01*
X1524214Y3658795D01*
X1541205Y3675786D01*
X1550116Y3697300D01*
D02*
G37*
G36*
X1477300D02*
X1429884D01*
X1438795Y3675786D01*
X1455786Y3658795D01*
X1477300Y3649884D01*
Y3697300D01*
D02*
G37*
G36*
X2071020Y2825400D02*
X2048980D01*
X2028618Y2816966D01*
X2013034Y2801381D01*
X2004600Y2781020D01*
Y2758980D01*
X2013034Y2738619D01*
X2028618Y2723034D01*
X2048980Y2714600D01*
X2071020D01*
X2091381Y2723034D01*
X2106966Y2738619D01*
X2115400Y2758980D01*
Y2781020D01*
X2106966Y2801381D01*
X2091381Y2816966D01*
X2071020Y2825400D01*
D02*
G37*
G36*
X2612700Y2764304D02*
Y2712700D01*
X2664304D01*
X2660943Y2725243D01*
X2652333Y2740157D01*
X2640157Y2752333D01*
X2625243Y2760943D01*
X2612700Y2764304D01*
D02*
G37*
G36*
X2587300D02*
X2574756Y2760943D01*
X2559843Y2752333D01*
X2547667Y2740157D01*
X2539057Y2725243D01*
X2535696Y2712700D01*
X2587300D01*
Y2764304D01*
D02*
G37*
G36*
X4662700Y2730116D02*
Y2682700D01*
X4710116D01*
X4701205Y2704214D01*
X4684214Y2721205D01*
X4662700Y2730116D01*
D02*
G37*
G36*
X4637300D02*
X4615786Y2721205D01*
X4598795Y2704214D01*
X4589884Y2682700D01*
X4637300D01*
Y2730116D01*
D02*
G37*
G36*
X2862700Y2714704D02*
Y2672700D01*
X2904704D01*
X2896966Y2691381D01*
X2881381Y2706966D01*
X2862700Y2714704D01*
D02*
G37*
G36*
X2837300D02*
X2818618Y2706966D01*
X2803034Y2691381D01*
X2795296Y2672700D01*
X2837300D01*
Y2714704D01*
D02*
G37*
G36*
X2664304Y2687300D02*
X2612700D01*
Y2635696D01*
X2625243Y2639057D01*
X2640157Y2647667D01*
X2652333Y2659843D01*
X2660943Y2674756D01*
X2664304Y2687300D01*
D02*
G37*
G36*
X2587300D02*
X2535696D01*
X2539057Y2674756D01*
X2547667Y2659843D01*
X2559843Y2647667D01*
X2574756Y2639057D01*
X2587300Y2635696D01*
Y2687300D01*
D02*
G37*
G36*
X4710116Y2657300D02*
X4662700D01*
Y2609884D01*
X4684214Y2618795D01*
X4701205Y2635786D01*
X4710116Y2657300D01*
D02*
G37*
G36*
X4637300D02*
X4589884D01*
X4598795Y2635786D01*
X4615786Y2618795D01*
X4637300Y2609884D01*
Y2657300D01*
D02*
G37*
G36*
X2904704Y2647300D02*
X2862700D01*
Y2605296D01*
X2881381Y2613034D01*
X2896966Y2628619D01*
X2904704Y2647300D01*
D02*
G37*
G36*
X2837300D02*
X2795296D01*
X2803034Y2628619D01*
X2818618Y2613034D01*
X2837300Y2605296D01*
Y2647300D01*
D02*
G37*
G36*
X1440679Y2703900D02*
X1413321D01*
X1386896Y2696819D01*
X1363204Y2683141D01*
X1343859Y2663796D01*
X1330180Y2640104D01*
X1323100Y2613679D01*
Y2586321D01*
X1330180Y2559896D01*
X1343859Y2536204D01*
X1363204Y2516859D01*
X1386896Y2503180D01*
X1413321Y2496100D01*
X1440679D01*
X1467104Y2503180D01*
X1490796Y2516859D01*
X1510141Y2536204D01*
X1523819Y2559896D01*
X1530900Y2586321D01*
Y2613679D01*
X1523819Y2640104D01*
X1510141Y2663796D01*
X1490796Y2683141D01*
X1467104Y2696819D01*
X1440679Y2703900D01*
D02*
G37*
G36*
X1276900D02*
X1069100D01*
Y2496100D01*
X1276900D01*
Y2703900D01*
D02*
G37*
G36*
X4132700Y2534704D02*
Y2492700D01*
X4174704D01*
X4166966Y2511382D01*
X4151381Y2526966D01*
X4132700Y2534704D01*
D02*
G37*
G36*
X4107300D02*
X4088618Y2526966D01*
X4073034Y2511382D01*
X4065296Y2492700D01*
X4107300D01*
Y2534704D01*
D02*
G37*
G36*
X3201020Y2587300D02*
X3178980D01*
X3158619Y2578866D01*
X3143034Y2563281D01*
X3134600Y2542919D01*
Y2520880D01*
X3143034Y2500518D01*
X3158619Y2484934D01*
X3178980Y2476500D01*
X3201020D01*
X3221381Y2484934D01*
X3236966Y2500518D01*
X3245400Y2520880D01*
Y2542919D01*
X3236966Y2563281D01*
X3221381Y2578866D01*
X3201020Y2587300D01*
D02*
G37*
G36*
X2312700Y2504704D02*
Y2462700D01*
X2354704D01*
X2346966Y2481381D01*
X2331382Y2496966D01*
X2312700Y2504704D01*
D02*
G37*
G36*
X2287300D02*
X2268619Y2496966D01*
X2253034Y2481381D01*
X2245296Y2462700D01*
X2287300D01*
Y2504704D01*
D02*
G37*
G36*
X4174704Y2467300D02*
X4132700D01*
Y2425296D01*
X4151381Y2433034D01*
X4166966Y2448619D01*
X4174704Y2467300D01*
D02*
G37*
G36*
X4107300D02*
X4065296D01*
X4073034Y2448619D01*
X4088618Y2433034D01*
X4107300Y2425296D01*
Y2467300D01*
D02*
G37*
G36*
X2354704Y2437300D02*
X2312700D01*
Y2395296D01*
X2331382Y2403034D01*
X2346966Y2418618D01*
X2354704Y2437300D01*
D02*
G37*
G36*
X2287300D02*
X2245296D01*
X2253034Y2418618D01*
X2268619Y2403034D01*
X2287300Y2395296D01*
Y2437300D01*
D02*
G37*
G36*
X1811020Y2505400D02*
X1788980D01*
X1768619Y2496966D01*
X1753034Y2481381D01*
X1744600Y2461020D01*
Y2438980D01*
X1753034Y2418618D01*
X1768619Y2403034D01*
X1788980Y2394600D01*
X1811020D01*
X1831382Y2403034D01*
X1846966Y2418618D01*
X1855400Y2438980D01*
Y2461020D01*
X1846966Y2481381D01*
X1831382Y2496966D01*
X1811020Y2505400D01*
D02*
G37*
G36*
X4131020Y2385400D02*
X4108980D01*
X4088618Y2376966D01*
X4073034Y2361381D01*
X4064600Y2341020D01*
Y2318980D01*
X4073034Y2298618D01*
X4088618Y2283034D01*
X4108980Y2274600D01*
X4131020D01*
X4151381Y2283034D01*
X4166966Y2298618D01*
X4175400Y2318980D01*
Y2341020D01*
X4166966Y2361381D01*
X4151381Y2376966D01*
X4131020Y2385400D01*
D02*
G37*
G36*
X3199306Y2378986D02*
X3177266D01*
X3156905Y2370552D01*
X3141320Y2354968D01*
X3132886Y2334606D01*
Y2312567D01*
X3141320Y2292205D01*
X3156905Y2276621D01*
X3177266Y2268186D01*
X3199306D01*
X3219668Y2276621D01*
X3235252Y2292205D01*
X3243686Y2312567D01*
Y2334606D01*
X3235252Y2354968D01*
X3219668Y2370552D01*
X3199306Y2378986D01*
D02*
G37*
G36*
X3660025Y2300400D02*
X3639975D01*
X3621450Y2292727D01*
X3607273Y2278549D01*
X3599600Y2260025D01*
Y2239975D01*
X3607273Y2221450D01*
X3621450Y2207273D01*
X3639975Y2199600D01*
X3660025D01*
X3678549Y2207273D01*
X3692727Y2221450D01*
X3700400Y2239975D01*
Y2260025D01*
X3692727Y2278549D01*
X3678549Y2292727D01*
X3660025Y2300400D01*
D02*
G37*
G36*
X4131020Y2235400D02*
X4108980D01*
X4088618Y2226966D01*
X4073034Y2211381D01*
X4064600Y2191020D01*
Y2168980D01*
X4073034Y2148619D01*
X4088618Y2133034D01*
X4108980Y2124600D01*
X4131020D01*
X4151381Y2133034D01*
X4166966Y2148619D01*
X4175400Y2168980D01*
Y2191020D01*
X4166966Y2211381D01*
X4151381Y2226966D01*
X4131020Y2235400D01*
D02*
G37*
G36*
X1812700Y2104704D02*
Y2062700D01*
X1854704D01*
X1846966Y2081381D01*
X1831382Y2096966D01*
X1812700Y2104704D01*
D02*
G37*
G36*
X1787300D02*
X1768619Y2096966D01*
X1753034Y2081381D01*
X1745296Y2062700D01*
X1787300D01*
Y2104704D01*
D02*
G37*
G36*
X4132700Y2084704D02*
Y2042700D01*
X4174704D01*
X4166966Y2061381D01*
X4151381Y2076966D01*
X4132700Y2084704D01*
D02*
G37*
G36*
X4107300D02*
X4088618Y2076966D01*
X4073034Y2061381D01*
X4065296Y2042700D01*
X4107300D01*
Y2084704D01*
D02*
G37*
G36*
X1854704Y2037300D02*
X1812700D01*
Y1995296D01*
X1831382Y2003034D01*
X1846966Y2018619D01*
X1854704Y2037300D01*
D02*
G37*
G36*
X1787300D02*
X1745296D01*
X1753034Y2018619D01*
X1768619Y2003034D01*
X1787300Y1995296D01*
Y2037300D01*
D02*
G37*
G36*
X2311020Y2105400D02*
X2288980D01*
X2268619Y2096966D01*
X2253034Y2081381D01*
X2244600Y2061019D01*
Y2038980D01*
X2253034Y2018618D01*
X2268619Y2003034D01*
X2288980Y1994600D01*
X2311020D01*
X2331382Y2003034D01*
X2346966Y2018618D01*
X2355400Y2038980D01*
Y2061019D01*
X2346966Y2081381D01*
X2331382Y2096966D01*
X2311020Y2105400D01*
D02*
G37*
G36*
X4174704Y2017300D02*
X4132700D01*
Y1975296D01*
X4151381Y1983034D01*
X4166966Y1998619D01*
X4174704Y2017300D01*
D02*
G37*
G36*
X4107300D02*
X4065296D01*
X4073034Y1998619D01*
X4088618Y1983034D01*
X4107300Y1975296D01*
Y2017300D01*
D02*
G37*
G36*
X3201020Y2025400D02*
X3178980D01*
X3158619Y2016966D01*
X3143034Y2001382D01*
X3134600Y1981020D01*
Y1958980D01*
X3143034Y1938619D01*
X3158619Y1923034D01*
X3178980Y1914600D01*
X3201020D01*
X3221381Y1923034D01*
X3236966Y1938619D01*
X3245400Y1958980D01*
Y1981020D01*
X3236966Y2001382D01*
X3221381Y2016966D01*
X3201020Y2025400D01*
D02*
G37*
G36*
X2862700Y1894704D02*
Y1852700D01*
X2904704D01*
X2896966Y1871381D01*
X2881381Y1886966D01*
X2862700Y1894704D01*
D02*
G37*
G36*
X2837300D02*
X2818618Y1886966D01*
X2803034Y1871381D01*
X2795296Y1852700D01*
X2837300D01*
Y1894704D01*
D02*
G37*
G36*
X4662700Y1890116D02*
Y1842700D01*
X4710116D01*
X4701205Y1864214D01*
X4684214Y1881205D01*
X4662700Y1890116D01*
D02*
G37*
G36*
X4637300D02*
X4615786Y1881205D01*
X4598795Y1864214D01*
X4589884Y1842700D01*
X4637300D01*
Y1890116D01*
D02*
G37*
G36*
X2612700Y1864304D02*
Y1812700D01*
X2664304D01*
X2660943Y1825243D01*
X2652333Y1840157D01*
X2640157Y1852333D01*
X2625243Y1860943D01*
X2612700Y1864304D01*
D02*
G37*
G36*
X2587300D02*
X2574756Y1860943D01*
X2559843Y1852333D01*
X2547667Y1840157D01*
X2539057Y1825243D01*
X2535696Y1812700D01*
X2587300D01*
Y1864304D01*
D02*
G37*
G36*
X1440679Y2003900D02*
X1413321D01*
X1386896Y1996819D01*
X1363204Y1983141D01*
X1343859Y1963796D01*
X1330180Y1940104D01*
X1323100Y1913679D01*
Y1886321D01*
X1330180Y1859896D01*
X1343859Y1836204D01*
X1363204Y1816859D01*
X1386896Y1803181D01*
X1413321Y1796100D01*
X1440679D01*
X1467104Y1803181D01*
X1490796Y1816859D01*
X1510141Y1836204D01*
X1523819Y1859896D01*
X1530900Y1886321D01*
Y1913679D01*
X1523819Y1940104D01*
X1510141Y1963796D01*
X1490796Y1983141D01*
X1467104Y1996819D01*
X1440679Y2003900D01*
D02*
G37*
G36*
X1276900D02*
X1069100D01*
Y1796100D01*
X1276900D01*
Y2003900D01*
D02*
G37*
G36*
X2904704Y1827300D02*
X2862700D01*
Y1785296D01*
X2881381Y1793034D01*
X2896966Y1808618D01*
X2904704Y1827300D01*
D02*
G37*
G36*
X2837300D02*
X2795296D01*
X2803034Y1808618D01*
X2818618Y1793034D01*
X2837300Y1785296D01*
Y1827300D01*
D02*
G37*
G36*
X4710116Y1817300D02*
X4662700D01*
Y1769884D01*
X4684214Y1778795D01*
X4701205Y1795786D01*
X4710116Y1817300D01*
D02*
G37*
G36*
X4637300D02*
X4589884D01*
X4598795Y1795786D01*
X4615786Y1778795D01*
X4637300Y1769884D01*
Y1817300D01*
D02*
G37*
G36*
X2664304Y1787300D02*
X2612700D01*
Y1735696D01*
X2625243Y1739057D01*
X2640157Y1747667D01*
X2652333Y1759843D01*
X2660943Y1774756D01*
X2664304Y1787300D01*
D02*
G37*
G36*
X2587300D02*
X2535696D01*
X2539057Y1774756D01*
X2547667Y1759843D01*
X2559843Y1747667D01*
X2574756Y1739057D01*
X2587300Y1735696D01*
Y1787300D01*
D02*
G37*
G36*
X2031020Y1785400D02*
X2008980D01*
X1988619Y1776966D01*
X1973034Y1761382D01*
X1964600Y1741020D01*
Y1718980D01*
X1973034Y1698619D01*
X1988619Y1683034D01*
X2008980Y1674600D01*
X2031020D01*
X2051381Y1683034D01*
X2066966Y1698619D01*
X2075400Y1718980D01*
Y1741020D01*
X2066966Y1761382D01*
X2051381Y1776966D01*
X2031020Y1785400D01*
D02*
G37*
G36*
X5119698Y600000D02*
X5080302D01*
X5041662Y592314D01*
X5005265Y577238D01*
X4972507Y555350D01*
X4944650Y527492D01*
X4922762Y494735D01*
X4907686Y458338D01*
X4900000Y419698D01*
Y380302D01*
X4907686Y341662D01*
X4922762Y305265D01*
X4944650Y272507D01*
X4972507Y244650D01*
X5005265Y222762D01*
X5041662Y207686D01*
X5080302Y200000D01*
X5119698D01*
X5158338Y207686D01*
X5194735Y222762D01*
X5227492Y244650D01*
X5255350Y272507D01*
X5277238Y305265D01*
X5292314Y341662D01*
X5300000Y380302D01*
Y419698D01*
X5292314Y458338D01*
X5277238Y494735D01*
X5255350Y527492D01*
X5227492Y555350D01*
X5194735Y577238D01*
X5158338Y592314D01*
X5119698Y600000D01*
D02*
G37*
G36*
X419698D02*
X380302D01*
X341662Y592314D01*
X305265Y577238D01*
X272507Y555350D01*
X244650Y527492D01*
X222762Y494735D01*
X207686Y458338D01*
X200000Y419698D01*
Y380302D01*
X207686Y341662D01*
X222762Y305265D01*
X244650Y272507D01*
X272507Y244650D01*
X305265Y222762D01*
X341662Y207686D01*
X380302Y200000D01*
X419698D01*
X458338Y207686D01*
X494735Y222762D01*
X527492Y244650D01*
X555350Y272507D01*
X577238Y305265D01*
X592314Y341662D01*
X600000Y380302D01*
Y419698D01*
X592314Y458338D01*
X577238Y494735D01*
X555350Y527492D01*
X527492Y555350D01*
X494735Y577238D01*
X458338Y592314D01*
X419698Y600000D01*
D02*
G37*
%LPD*%
D26*
X3656967Y3825400D02*
X3555400D01*
X3656967Y3926967D01*
Y3952359D01*
X3631575Y3977750D01*
X3580792D01*
X3555400Y3952359D01*
D27*
X1173000Y1900000D02*
D03*
Y2600000D02*
D03*
D28*
X1427000Y1900000D02*
D03*
Y2600000D02*
D03*
D29*
X1786000Y4050000D02*
D03*
X2040000D02*
D03*
D30*
X2294000D02*
D03*
D31*
X400000Y4100000D02*
D03*
X5100000D02*
D03*
Y400000D02*
D03*
X400000D02*
D03*
D32*
X2850000Y2660000D02*
D03*
X2020000Y1730000D02*
D03*
X950000Y4030000D02*
D03*
X1240000Y3710000D02*
D03*
X1800000Y2050000D02*
D03*
Y2450000D02*
D03*
X2060000Y2770000D02*
D03*
X2300000Y2050000D02*
D03*
Y2450000D02*
D03*
X2590000Y3710000D02*
D03*
X2850000Y1840000D02*
D03*
X3190000Y1970000D02*
D03*
X4120000Y2480000D02*
D03*
X3000000Y2160000D02*
D03*
Y2340000D02*
D03*
X3188286Y2323586D02*
D03*
X3190000Y2531900D02*
D03*
X4120000Y2330000D02*
D03*
Y2030000D02*
D03*
Y2180000D02*
D03*
D33*
X2600000Y1800000D02*
D03*
X1800000Y1600000D02*
D03*
X2600000Y2700000D02*
D03*
X1800000Y2900000D02*
D03*
X3850000Y1550000D02*
D03*
Y2950000D02*
D03*
D34*
X1360000Y4030000D02*
D03*
X1490000Y3710000D02*
D03*
X2760000Y4030000D02*
D03*
X4650000Y1830000D02*
D03*
Y2670000D02*
D03*
D35*
X3650000Y2250000D02*
D03*
%TF.MD5,229f4d2346b94ebcf3129f3556e82cc2*%
M02*
