M48
;Layer_Color=9474304
;FILE_FORMAT=4:4
METRIC,LZ
;TYPE=PLATED
T01F00S00C0.2000
T02F00S00C0.2500
T03F00S00C0.3000
T04F00S00C0.4000
T05F00S00C1.0200
T06F00S00C1.3000
;TYPE=NON_PLATED
T07F00S00C4.0000
%
T01
X00365Y00225
T02
X00202Y00173
X0018Y00205
Y00245
X0023Y00245
Y00205
X00206Y00277
X00259Y00371
X00124
X00095Y00403
X00285Y00266
X00319Y0025319
X00318829Y00232359
X003Y00234
Y00216
X00319Y00197
X00285Y00184
X00412Y00203
Y00218
Y00233
Y00248
T03
X00149Y00371
X00136Y00403
X00276
X00465Y00267
Y00183
T04
X0018Y0016
X0026Y0018
Y0027
X0018Y0029
X00385Y00295
Y00155
T05
X001173Y0019
X001427
Y0026
X001173
T06
X001786Y00405
X00204
X002294
T07
X0051Y0004
X0004
Y0041
X0051
M30
